Patient4_TMGait_0pt7_02_right_50_EMG.mot
version=1
nRows=30
nColumns=33
inDegrees=no
endheader
time	1LAddLong	2LGlutMax	3LGlutMed	4LIliopsoas	5LSemiMemb	6LBicFemLong	7LRecFem	8LVastMed	9LVastLat	10LGasMed	11LTibAnt	12lTibPost	13LPeroneusLong	14LSol	15LExtDigLong	16LFlexDigLong	17RAddLong	18RGlutMax	19RGlutMed	20RIliopsoas	21RSemiMemb	22RBicFemLong	23RRecFem	24RVastMed	25RVastLat	26RGasMed	27RTibAnt	28RTibPost	29RPeroneusLong	30RSol	31RExtDigLong	32RFlexDigLong
57.92	0.01236	-0.093079	0.19028	0.032501	0.070343	0.053101	0.091705	0.006409	0.063934	0.15579	0.12848	0.000763	-0.12314	-0.13596	-0.34729	0.000153	-0.004578	-0.14603	-0.020142	0.003662	-0.01236	0.043945	0.2504	-0.02182	0.010986	0.010681	0.10819	-0.003052	-0.76721	-0.068207	0	-0.02121
57.921	0.003967	-0.097504	0.048523	0.005798	-0.00061	-0.026703	0.07431	0.014038	0.029144	0.37918	-0.005493	0.011597	-0.033112	-0.093994	-0.1535	0.009613	0.000916	-0.059967	0.11536	-0.044556	0.006409	0.029602	0.27481	0.031433	0.027161	0.002747	0.093384	-0.001831	-0.48508	-0.051727	0.003662	-0.01236
57.922	0.00946	-0.10422	0.019073	-0.008392	-0.10269	-0.046692	0.075226	0.003052	0.033417	0.159	0.047913	-0.001068	0.020447	-0.004883	0.089264	0.015259	0.002747	-0.11078	-0.030975	-0.051117	0.045319	0.010681	0.19699	-0.031586	0.020752	0.000458	0.05661	-0.00412	0.13565	-0.021057	0.000916	-0.012665
57.923	0.00473	-0.11093	0.014801	0.016327	-0.037537	-0.072327	0.088654	0.007019	0.060425	-0.074005	0.00473	0.002747	-0.027924	-0.04425	0.18829	-0.007019	0.004425	-0.055084	-0.28153	-0.034027	0.05722	0.020752	0.063019	0.00473	0.023499	0.006866	0.034332	-0.002594	0.59387	-0.031433	0.002594	-0.006866
57.924	0.007629	-0.16327	-0.032349	0.010986	0.056763	-0.097046	0.087891	0.001984	0.054321	-0.28336	-0.04776	0.001373	-0.021515	-0.086212	0.06012	-0.007782	0.000458	-0.034943	-0.17441	-0.005951	0.056915	0.031738	-0.010529	-0.019836	0.012665	-0.00061	0.056763	-0.00412	0.32044	-0.03067	0.00061	-0.003967
57.925	0.010986	-0.16022	0.019836	0.014648	-0.012817	0.006866	0.095367	0.006256	0.080261	-0.14938	-0.002747	0.0177	0.071716	-0.13321	-0.019226	0.003357	0.001526	-0.020142	0.29892	-0.025482	-0.037384	0.062256	-0.021667	-0.019531	0.024414	0.001068	0.070801	-0.009766	0.14374	-0.041351	0.000763	-0.003357
57.926	0.014496	-0.19424	0.083618	0.015869	0.012207	0.071869	0.10407	-0.003815	0.07431	-0.082703	0.0383	0.019684	0.075836	-0.1796	-0.035858	0.002136	-0.004883	-0.06073	0.24689	-0.029755	-0.12528	0.10529	-0.002441	-0.026093	0.023346	-0.000458	0.067291	-0.007324	0.1265	-0.031738	-0.000916	-0.00473
57.927	0.018311	-0.18738	0.10803	-0.000305	0.04776	0.014801	0.084381	-0.00473	0.06073	-0.009766	0.057068	0.014496	0.081024	-0.10025	-0.021362	0.020599	-0.007782	-0.044861	0.04715	0.005798	-0.075684	0.069122	-0.023193	-0.001831	0.021973	-0.003052	0.032959	-0.003815	0.042725	-0.02533	-0.000763	0.000916
57.928	0.023956	-0.15595	0.068817	0.013733	0.035095	0.014801	0.09552	0.001221	0.049133	0.022125	0.036774	0.013428	0.090637	-0.076294	0.00351	0.008392	-0.005493	-0.073547	-0.24078	0.020905	-0.049896	0.022888	0.009918	-0.090637	0.013428	0.000153	-0.059204	-0.002747	0.003052	-0.038605	0.001221	-0.001068
57.929	0.029755	-0.1831	-0.002441	-0.003967	0.081177	0.000763	0.12512	-0.000305	0.016174	0.089111	0.018463	0.007019	0.037689	-0.048676	0.045624	-0.008545	0.009918	-0.056305	-0.02121	0.025787	0.005035	0.050354	0.052032	-0.041962	0.018616	0.005798	-0.13275	-0.00885	0.16159	-0.034485	-0.006866	0.004272
57.93	0.026245	-0.16281	0.007935	-0.004883	0.11581	-0.032654	0.12344	-0.007629	-0.010834	0.075226	0.022278	0.007477	0.050507	-0.001678	0.041046	0.007782	0.024719	-0.035706	0.26001	0.010376	0.020447	0.045776	0.042114	-0.057831	0.016174	-0.001831	-0.032043	-0.003662	0.22934	-0.03952	0.001984	0.002136
57.931	0.012054	-0.16281	0.015411	-0.020142	0.060272	-0.002899	0.15533	0.005646	-0.019836	0.023041	-0.018616	0.010681	-0.017548	0.035248	-0.080261	0.008545	0.033569	-0.033112	0.18143	0.018311	-0.015564	0.082397	0.041199	-0.03952	0.012817	-0.000458	0.12634	-0.002899	0.0737	-0.049896	0.000763	0.005188
57.932	0.00473	-0.15854	0.007477	0.003967	0.021973	0.034027	0.15045	0.004425	0.005035	0.054474	-0.024109	0.000763	-0.053253	-0.003815	0.14877	-0.023041	0.025482	-0.04364	-0.19898	0.029907	-0.017548	0.078583	0.034637	-0.047455	0.02182	0.001068	0.2858	-0.001068	-0.43015	-0.098877	-0.00061	0.010681
57.933	0.005341	-0.15549	0.022583	0.016785	0.009308	0.098572	0.15518	0.007782	-0.014954	0.094757	0.00473	0.003204	-0.042267	-0.040131	0.62622	-0.009766	-0.008392	-0.058899	-0.36057	0.022583	-0.014648	0.066071	0.037231	-0.08728	0.029297	0.001221	0.36499	-0.005188	-0.46341	-0.097351	-0.000305	0.013885
57.934	0.00824	-0.12085	-0.00885	0.0177	0.004883	0.15793	0.15167	0.014191	-0.055847	0.040283	0.010071	0.004578	-0.023499	-0.043335	-0.12756	-0.012817	-0.029907	-0.038452	-0.40558	0.026398	-0.022125	0.058594	0.009003	-0.041199	0.026093	-0.011444	0.19745	-0.006714	0.025787	-0.010071	-0.000153	0.015564
57.935	-0.006714	-0.1091	0.022583	0.013123	0.030518	0.23377	0.14801	0.015411	-0.012207	-0.001678	-0.007019	0.003204	-0.04364	0.045929	-0.29968	0.013428	-0.009613	0.00412	-0.32044	0.005798	-0.032806	0.03891	0.026855	-0.056152	0.01236	-0.016937	0.055542	-0.007477	0.38269	-0.013428	0	0.023346
57.936	-0.001068	-0.06134	-0.00946	0.018005	0.026703	0.3183	0.12619	0.007782	0.08255	-0.023041	-0.032959	0.002747	-0.059052	0.000153	-0.20691	0.00946	-0.013733	0.013428	-0.19058	0.031891	-0.083313	0.046692	0.031128	-0.02121	0.04715	-0.005646	0.1532	-0.008698	0.46173	-0.071106	0.004425	0.022278
57.937	0.00473	-0.085297	0.00824	-0.000458	0.001984	0.30762	0.095673	0.012817	0.13412	-0.048828	-0.01297	0.006409	-0.064392	-0.018158	-0.13947	0.085754	-0.004578	0.03479	-0.38284	0.033112	-0.055542	0.045166	0.026703	-0.007477	0.025635	-0.009003	-0.057526	-0.002747	-0.48386	-0.10452	0.001831	0.018616
57.938	0.016174	-0.067291	-0.017548	0.010681	0.003662	0.026245	0.099945	0.014343	0.11795	-0.035553	-0.011292	0.00351	-0.037079	-0.017548	-0.078278	-0.045013	0.024872	0.027313	-0.44388	0.017395	-0.014496	0.06134	0.03479	-0.04776	0.026245	-0.008087	-0.13779	-0.009003	-0.54916	-0.089722	0.000305	0.020294
57.939	0.005035	-0.044861	-0.060425	0.001221	0.025635	-0.13931	0.1268	0.00824	0.18707	-0.023193	0.002289	-0.010529	-0.00473	0.000305	-0.01709	-0.14694	0.003967	-0.028687	-0.20294	-0.027924	0.048523	0.031891	0.018158	-0.057373	0.016937	-0.008545	-0.12802	-0.006561	-0.070648	-0.041351	0.000763	0.019836
57.94	0.012665	0.000153	-0.11368	-0.019379	0.030823	-0.37811	0.11078	0.001984	0.23438	-0.033112	0.022736	-0.002441	-0.010529	0.007629	0.063934	0.072479	-0.010681	0.000763	-0.19241	-0.027313	0.028381	0.042114	-0.007629	-0.033264	0.025024	-0.010529	-0.17044	-0.009308	0.029907	0.019379	-0.00412	0.014496
57.941	0.014954	0.012207	-0.1207	-0.007324	0.016479	-0.26306	0.12711	0.002136	0.22827	-0.012512	0.071411	0.006714	-0.022736	0.014496	-0.000458	0.069885	-0.015259	-0.02655	-0.39841	0.000458	0.045319	0.037994	-0.02533	-0.037231	0.037994	-0.01236	-0.037231	-0.005035	-0.088043	-0.018005	0.001678	0.021362
57.942	0.022125	0.010986	0.057068	0.016174	0.003204	-0.15442	0.19547	0.006409	-0.028534	0.039063	0.1178	-0.006104	-0.092621	-0.00061	-0.024719	0.037994	-0.030823	-0.062866	-0.32608	-0.003815	-0.014954	0.092773	-0.027924	-0.021057	0.045929	-0.010986	0.20142	-0.009155	-0.11368	0.012207	-0.002289	0.019379
57.943	0.007629	0.00473	0.070648	0.023499	-0.003052	-0.072937	0.18982	0.002289	-0.31418	0.059967	0.066833	0.005341	-0.072021	0.022583	-0.029144	0.026093	-0.016632	-0.028534	-0.032501	0.037079	-0.068817	0.11215	-0.018921	0.000153	0.027771	-0.008392	0.30258	-0.00473	-0.080414	0.000153	0	0.009918
57.944	0.007935	0.046692	0.061188	-0.007172	-0.006409	0	0.17151	0.002441	-0.26123	0.076447	-0.019379	0.00946	0.000916	0.040436	0.12909	0.014496	-0.010223	-0.018768	-0.4097	0.054321	-0.060272	0.057068	0.027466	-0.015106	0.024719	-0.009918	0.11612	-0.004578	-0.048523	0.015106	0	0.00885
57.945	-0.001068	0.037537	0.016632	0.005341	-0.004272	0.014648	0.13962	0.002594	-0.19272	0.079803	-0.20126	0.000153	0.0177	0.052643	0.49515	-0.001984	0.002747	-0.048981	-0.28488	-0.007629	0.04776	0.021057	0.033875	0.001984	0.036316	-0.021362	-0.036926	-0.007324	-0.015717	-0.001373	-0.000153	0.00885
57.946	0.004578	0.00946	-0.062866	0.01358	-0.003662	0.069122	0.061951	0.009155	-0.14084	0.043182	-0.05661	0.000305	0.026245	0.070953	-0.001526	-0.006256	0.017548	-0.055237	-0.26321	0.029755	0.008545	-0.019226	0.022583	-0.016174	0.02594	-0.014954	-0.21103	-0.001373	0.037384	-0.032349	0.000305	0.006409
57.947	0.000763	0.04837	-0.055695	-0.010376	0.002747	0.052795	0.066376	-0.003815	-0.070496	0.021515	-0.019836	-0.009308	0.016327	0.0737	-0.028534	-0.004578	0.020447	-0.016327	-0.4924	-0.000153	-0.03418	-0.03418	0.045776	-0.032043	0.019379	-0.017242	-0.2713	-0.006866	0.11093	-0.039215	0.001831	0.00885
57.948	0.000305	0.054779	-0.040283	-0.013428	0.003815	0.088043	0.13001	-0.004578	-0.091705	0.02533	-0.071106	0.018158	-0.046539	0.034943	-0.019073	0.001526	0.010071	-0.018768	-0.74402	0.006104	-0.058746	0.001831	-0.014801	-0.018768	0.041199	-0.015717	-0.39597	-0.009003	0.20355	-0.013733	0.000458	0.008545
57.949	0.005493	0.066071	-0.056305	-0.005798	0.025024	0.10773	0.15442	-0.002136	-0.046844	0.029449	-0.12833	-0.005035	-0.020905	0.011902	-0.41809	0.001831	0.011139	-0.037231	-1.2546	0.047302	0.00061	0.030823	0.021515	-0.045166	0.006866	-0.006714	-0.1648	-0.00351	0.28122	-0.014191	0.001678	0.003967
